<svg width="256" height="250" viewBox="0 0 256 250" fill="none" xmlns="http://www.w3.org/2000/svg">
<path d="M127.505 0.5C57.095 0.5 0 57.585 0 128.005C0 184.341 36.534 232.135 87.196 248.995C93.568 250.175 95.908 246.229 95.908 242.861C95.908 239.821 95.789 229.776 95.735 219.122C60.262 226.835 52.777 204.078 52.777 204.078C46.977 189.34 38.62 185.422 38.62 185.422C27.052 177.508 39.492 177.67 39.492 177.67C52.296 178.57 59.038 190.81 59.038 190.81C70.41 210.303 88.866 204.667 96.142 201.41C97.286 193.168 100.591 187.544 104.237 184.36C75.917 181.135 46.145 170.202 46.145 121.346C46.145 107.426 51.126 96.051 59.283 87.122C57.959 83.91 53.595 70.942 60.518 53.379C60.518 53.379 71.225 49.952 95.591 66.449C105.761 63.623 116.669 62.207 127.505 62.159C138.341 62.207 149.257 63.623 159.447 66.449C183.784 49.952 194.476 53.379 194.476 53.379C201.416 70.942 197.05 83.91 195.726 87.122C203.901 96.051 208.848 107.425 208.848 121.346C208.848 170.318 179.02 181.102 150.628 184.258C155.201 188.215 159.276 195.975 159.276 207.87C159.276 224.93 159.128 238.661 159.128 242.861C159.128 246.254 161.423 250.23 167.887 248.978C218.521 232.099 255.009 184.322 255.009 128.005C255.009 57.585 197.922 0.5 127.505 0.5Z" fill="white"/>
<path d="M47.7549 182.134C47.4749 182.767 46.4769 182.957 45.5699 182.523C44.6449 182.107 44.1249 181.243 44.4249 180.607C44.6999 179.955 45.6979 179.773 46.6209 180.211C47.5479 180.626 48.0759 181.498 47.7549 182.134M54.0269 187.73C53.4189 188.294 52.2299 188.032 51.4229 187.141C50.5889 186.252 50.4329 185.064 51.0499 184.491C51.6769 183.928 52.8299 184.191 53.6659 185.081C54.4999 185.98 54.6619 187.161 54.0259 187.731M58.3299 194.89C57.5479 195.433 56.2699 194.924 55.4809 193.79C54.6999 192.657 54.6999 191.297 55.4979 190.752C56.2899 190.207 57.5479 190.697 58.3479 191.822C59.1279 192.975 59.1279 194.335 58.3289 194.891M65.6059 203.183C64.9069 203.953 63.4189 203.747 62.3289 202.695C61.2149 201.667 60.9039 200.208 61.6049 199.437C62.3119 198.665 63.8089 198.882 64.9069 199.925C66.0139 200.951 66.3519 202.421 65.6069 203.183M75.0099 205.983C74.7029 206.981 73.2689 207.435 71.8249 207.011C70.3829 206.574 69.4389 205.404 69.7299 204.395C70.0299 203.39 71.4699 202.917 72.9249 203.371C74.3649 203.806 75.3109 204.967 75.0109 205.983M85.7139 207.17C85.7499 208.222 84.5249 209.094 83.0089 209.113C81.4839 209.146 80.2509 208.295 80.2349 207.261C80.2349 206.199 81.4319 205.335 82.9559 205.31C84.4719 205.28 85.7139 206.125 85.7139 207.17M96.2279 206.767C96.4099 207.793 95.3559 208.847 93.8509 209.127C92.3709 209.397 91.0009 208.764 90.8119 207.747C90.6279 206.695 91.7019 205.642 93.1789 205.369C94.6869 205.107 96.0359 205.724 96.2279 206.767" fill="white"/>
</svg>
