<svg width="150" height="145" viewBox="0 0 150 145" fill="none" xmlns="http://www.w3.org/2000/svg">
<mask id="mask0_422_142" style="mask-type:alpha" maskUnits="userSpaceOnUse" x="0" y="0" width="150" height="145">
<rect width="121" height="100" transform="matrix(0.897982 0.440032 -0.408425 0.912792 40.8425 0)" fill="white"/>
</mask>
<g mask="url(#mask0_422_142)">
<path d="M67.0435 29.5332C70.427 21.9714 79.2005 18.7964 86.6396 22.4418L95.6194 26.8421L85.4088 49.6619L62.9592 38.6611L67.0435 29.5332Z" fill="#306998"/>
<rect width="25" height="25" transform="matrix(0.897982 0.440032 -0.408425 0.912792 62.9593 38.6611)" fill="#306998"/>
<rect width="25" height="25" transform="matrix(0.897982 0.440032 -0.408425 0.912792 85.4088 49.6616)" fill="#306998"/>
<rect width="25" height="25" transform="matrix(0.897982 0.440032 -0.408425 0.912792 95.6194 26.8418)" fill="#306998"/>
<path d="M30.2991 50.48L52.7486 61.4808L42.538 84.3006L33.5582 79.9003C26.1191 76.2549 22.8313 67.1697 26.2148 59.6079L30.2991 50.48Z" fill="#306998"/>
<rect width="25" height="25" transform="matrix(0.897982 0.440032 -0.408425 0.912792 40.5097 27.6602)" fill="#306998"/>
<circle cx="4" cy="4" r="4" transform="matrix(0.897982 0.440032 -0.408425 0.912792 77.0052 24.3979)" fill="white"/>
<path d="M83.3529 115.43C79.9694 122.992 71.196 126.167 63.7568 122.522L54.777 118.121L64.9876 95.3015L87.4372 106.302L83.3529 115.43Z" fill="#E8C548"/>
<rect width="25" height="25" transform="matrix(-0.897982 -0.440032 0.408425 -0.912792 87.4371 106.302)" fill="#E8C548"/>
<rect width="25" height="25" transform="matrix(-0.897982 -0.440032 0.408425 -0.912792 64.9876 95.3018)" fill="#E8C548"/>
<rect width="25" height="25" transform="matrix(-0.897982 -0.440032 0.408425 -0.912792 54.777 118.122)" fill="#E8C548"/>
<path d="M120.097 94.4834L97.6478 83.4826L107.858 60.6628L116.838 65.0631C124.277 68.7085 127.565 77.7937 124.182 85.3555L120.097 94.4834Z" fill="#E8C548"/>
<rect width="25" height="25" transform="matrix(-0.897982 -0.440032 0.408425 -0.912792 109.887 117.303)" fill="#E8C548"/>
<circle cx="4" cy="4" r="4" transform="matrix(-0.897982 -0.440032 0.408425 -0.912792 73.3912 120.565)" fill="white"/>
</g>
<path d="M85.4712 55.008L77.7538 67.7533L77.6226 64.0885L94 89.0122L82.4375 89.0233L75.2714 77.0968C74.8876 76.5012 74.525 75.861 74.1836 75.176C73.8423 74.491 73.5861 73.8357 73.4152 73.2102L74.82 72.6278C74.5649 73.075 74.2886 73.6265 73.9911 74.2823C73.6511 74.9679 73.2898 75.6983 72.9072 76.4733L66.6589 89.0384L55.0326 89.0495L69.447 65.3031L75.3142 55.0178L85.4712 55.008Z" fill="white"/>
</svg>
