<svg width="22" height="17" viewBox="0 0 22 17" fill="none" xmlns="http://www.w3.org/2000/svg">
<path d="M15.6216 3.04541H15.2563V3.62581H15.6216C15.7999 3.62581 15.9082 3.5584 15.9082 3.33561C15.9082 3.11265 15.8 3.04541 15.6216 3.04541Z" fill="black"/>
<path d="M21.0879 1.40955H8.20854V0.829146C8.20854 0.371209 7.86486 0 7.40701 0H0.856756C0.398819 0 0 0.371209 0 0.829146V15.6709C0 16.1288 0.398819 16.5 0.856756 16.5H21.0879C21.5458 16.5 21.8894 16.1288 21.8894 15.6709V2.23869C21.8894 1.78076 21.5458 1.40955 21.0879 1.40955ZM1.59826 7.54523C1.50274 7.54523 1.4486 7.4143 1.4486 7.29333C1.4486 7.1882 1.49313 7.04774 1.59826 7.04774H2.97398C3.07903 7.04774 3.12364 7.1882 3.12364 7.29333C3.12364 7.4143 3.06958 7.54523 2.97398 7.54523H2.48744V9.25791C2.48744 9.35981 2.3629 9.4108 2.23869 9.4108C2.11449 9.4108 1.98995 9.3599 1.98995 9.25791V7.54523H1.59826V7.54523ZM3.56533 8.67842V7.83452C3.56533 7.2867 3.91199 7.0829 4.35136 7.0829C4.79089 7.0829 5.1407 7.2867 5.1407 7.83452V8.67842C5.1407 9.22607 4.79089 9.42987 4.35136 9.42987C3.91199 9.42987 3.56533 9.22615 3.56533 8.67842ZM7.3794 7.83128C7.3794 8.36625 7.03066 8.5402 6.59113 8.5402H6.21859V9.25791C6.21859 9.35981 6.09397 9.4108 5.96977 9.4108C5.84573 9.4108 5.72111 9.3599 5.72111 9.25791V7.23264C5.72111 7.15296 5.85236 7.04774 5.96388 7.04774H6.62305C7.04334 7.04774 7.3794 7.2804 7.3794 7.81545V7.83128ZM9.32955 9.44264C8.9124 9.44264 8.56209 9.23884 8.56209 9.02873C8.56209 8.92036 8.65761 8.76117 8.77866 8.76117C8.92832 8.76117 9.02384 8.99681 9.31993 8.99681C9.46644 8.99681 9.62887 8.93952 9.62887 8.78671C9.62887 8.40132 8.61938 8.46823 8.61938 7.72308C8.61938 7.24541 9.03653 7.06391 9.4346 7.06391C9.60342 7.06391 10.0683 7.09575 10.0683 7.34416C10.0683 7.43014 10.011 7.60526 9.8709 7.60526C9.75623 7.60526 9.69578 7.4842 9.4346 7.4842C9.20849 7.4842 9.11613 7.57657 9.11613 7.67532C9.11613 7.99379 10.1256 7.93327 10.1256 8.73571C10.1257 9.19431 9.79138 9.44264 9.32955 9.44264V9.44264ZM11.6636 8.04271C11.7591 8.04271 11.8133 8.15133 11.8133 8.25315C11.8133 8.33913 11.7687 8.45729 11.6636 8.45729H11.1935V8.95477H12.0394C12.1349 8.95477 12.189 9.08885 12.189 9.20675C12.189 9.30865 12.1445 9.45226 12.0394 9.45226H10.9057C10.7974 9.45226 10.696 9.3599 10.696 9.25791V7.23579C10.696 7.13389 10.7975 7.04766 10.9057 7.04766H12.0394C12.1445 7.04766 12.189 7.19126 12.189 7.29317C12.189 7.41107 12.135 7.54514 12.0394 7.54514H11.1935V8.04263H11.6636V8.04271ZM13.4679 8.99689C13.7226 8.99689 13.736 8.80263 13.7456 8.6785C13.7551 8.5606 13.8621 8.52876 13.9894 8.52876C14.1614 8.52876 14.2403 8.57337 14.2403 8.7644C14.2403 9.18793 13.901 9.42996 13.4457 9.42996C13.0285 9.42996 12.6859 9.22615 12.6859 8.6785V7.8346C12.6859 7.28678 13.0281 7.08298 13.4453 7.08298C13.9007 7.08298 14.2422 7.31232 14.2422 7.71669C14.2422 7.90781 14.1614 7.95242 13.9927 7.95242C13.8589 7.95242 13.7501 7.91735 13.7436 7.80268C13.7404 7.71993 13.7358 7.51612 13.4652 7.51612C13.2837 7.51612 13.1835 7.61803 13.1835 7.8346V8.6785C13.1834 8.89499 13.2833 8.99689 13.4679 8.99689V8.99689ZM16.112 9.42996C16.0483 9.42996 15.9878 9.38784 15.9528 9.32101L15.5165 8.45737H15.2563V9.25799C15.2563 9.35989 15.1317 9.41089 15.0075 9.41089C14.8834 9.41089 14.7588 9.35998 14.7588 9.25799V7.23272C14.7588 7.15304 14.8701 7.04782 14.9623 7.04782H15.6215C16.0578 7.04782 16.4049 7.22791 16.4049 7.74696C16.4049 8.10357 16.2425 8.31617 16.0195 8.40215L16.408 9.11032C16.4208 9.12939 16.424 9.15393 16.424 9.16985C16.4241 9.29406 16.2585 9.42996 16.112 9.42996V9.42996ZM17.962 8.0428C18.0576 8.0428 18.1118 8.15141 18.1118 8.25323C18.1118 8.33922 18.0672 8.45737 17.962 8.45737H17.495V8.95486H18.3378C18.4333 8.95486 18.4875 9.08893 18.4875 9.20683C18.4875 9.30874 18.4429 9.45235 18.3378 9.45235H17.2041C17.0958 9.45235 16.9975 9.35998 16.9975 9.25799V7.23587C16.9975 7.13397 17.0958 7.04774 17.2041 7.04774H18.3378C18.4429 7.04774 18.4875 7.19135 18.4875 7.29325C18.4875 7.41115 18.4334 7.54523 18.3378 7.54523H17.495V8.04271H17.962V8.0428ZM20.4011 7.54539H19.8995V9.25808C19.8995 9.35998 19.775 9.41097 19.6508 9.41097C19.5265 9.41097 19.402 9.36006 19.402 9.25808V7.54539H19.0254C18.9299 7.54539 18.8758 7.41447 18.8758 7.2935C18.8758 7.18836 18.9203 7.0479 19.0254 7.0479H20.4011C20.5063 7.0479 20.5508 7.18836 20.5508 7.2935C20.5508 7.41447 20.4966 7.54539 20.4011 7.54539Z" fill="black"/>
<path d="M6.59128 3.04541H6.21875V3.70873H6.59128C6.76963 3.70873 6.88207 3.58626 6.88207 3.36969V3.3347C6.88207 3.11813 6.76963 3.04541 6.59128 3.04541Z" fill="black"/>
<path d="M4.64339 4.17849V3.33459C4.64339 3.11486 4.52996 3.01611 4.35153 3.01611C4.17326 3.01611 4.06299 3.11478 4.06299 3.33459V4.17849C4.06299 4.39813 4.17326 4.49688 4.35153 4.49688C4.52996 4.49688 4.64339 4.39813 4.64339 4.17849Z" fill="black"/>
<rect x="1" y="5" width="20" height="6" fill="black"/>
</svg>
