<svg width="30" height="30" viewBox="0 0 30 30" fill="none" xmlns="http://www.w3.org/2000/svg">
<g clip-path="url(#clip0_407_6)">
<path fill-rule="evenodd" clip-rule="evenodd" d="M15.0045 0C23.2853 0 30.009 6.71467 30.009 15.0045C30.009 23.2853 23.2943 30.009 15.0045 30.009C6.72367 30.009 0 23.2943 0 15.0045C0 6.72367 6.71467 0 15.0045 0ZM11.4941 6.76868H18.5148C21.1521 6.76868 23.3033 8.90189 23.3033 11.4941V18.4968C23.3033 21.0981 21.1521 23.2223 18.5148 23.2223H11.4941C8.85688 23.2223 6.70567 21.0981 6.70567 18.4968V11.4941C6.70567 8.89289 8.86589 6.76868 11.4941 6.76868ZM14.9595 10.5581C17.5248 10.5581 19.604 12.6373 19.604 15.2025C19.604 17.7678 17.5248 19.847 14.9595 19.847C12.3942 19.847 10.315 17.7678 10.315 15.2025C10.315 12.6373 12.3942 10.5581 14.9595 10.5581ZM14.9595 12.1242C16.6517 12.1242 18.0288 13.5013 18.0288 15.1935C18.0288 16.8857 16.6517 18.2628 14.9595 18.2628C13.2583 18.2628 11.8902 16.8857 11.8902 15.1935C11.8902 13.5013 13.2673 12.1242 14.9595 12.1242ZM19.4509 9.90999C19.865 9.90999 20.207 10.243 20.207 10.6661C20.207 11.0801 19.874 11.4221 19.4509 11.4221C19.0369 11.4221 18.6949 11.0891 18.6949 10.6661C18.6949 10.252 19.0279 9.90999 19.4509 9.90999ZM12.0702 8.10981H17.9388C20.144 8.10981 21.9442 9.90099 21.9442 12.0972V18.0018C21.9442 20.198 20.144 21.9892 17.9388 21.9892H12.0702C9.86499 21.9892 8.06481 20.198 8.06481 18.0018V12.0972C8.06481 9.90099 9.86499 8.10981 12.0702 8.10981Z" fill="white"/>
</g>
<defs>
<clipPath id="clip0_407_6">
<rect width="30" height="30" fill="white"/>
</clipPath>
</defs>
</svg>
