<svg width="750" height="750" viewBox="0 0 750 750" fill="none" xmlns="http://www.w3.org/2000/svg">
<path d="M407.825 344.725H337.6C337.6 405.275 337.325 465.45 337.325 526.075C338.15 534.3 338.6 543.875 338.6 553.55C338.6 573.8 336.575 593.575 332.7 612.675L333.025 610.775C322.725 632.3 296.15 629.55 284.1 625.775C272.825 619.725 263.9 610.55 258.325 599.4L258.175 599.05C257.075 596.7 255.75 594.7 254.175 592.9L254.2 592.925L197.175 628.075C206.35 647.825 220.525 663.925 238.1 675.2L238.55 675.475C257.625 686.15 280.425 692.425 304.675 692.425C316.775 692.425 328.525 690.85 339.7 687.925L338.75 688.15C363.45 681.95 383.575 665.9 395.1 644.55L395.325 644.075C404.3 621.225 409.475 594.75 409.475 567.075C409.475 557.375 408.825 547.825 407.6 538.45L407.725 539.55C408.1 475.375 407.725 411.175 407.725 346.5L407.825 344.725ZM688.475 571.075C683 536.875 660.725 508.125 594.65 481.325C571.65 470.55 546.1 463.05 538.5 445.7C536.925 441.75 536.025 437.175 536.025 432.4C536.025 429.3 536.4 426.3 537.125 423.425L537.075 423.675C542.275 409.925 555.35 400.3 570.65 400.3C575.625 400.3 580.35 401.3 584.625 403.125L584.4 403.025C598.2 407.775 609.1 417.875 614.775 430.825L614.9 431.15C647.2 410.025 647.2 410.025 669.725 396C664.325 386.775 658.25 378.775 651.375 371.575L651.425 371.625C632.25 351.275 605.125 338.625 575.025 338.625C570.75 338.625 566.525 338.875 562.4 339.375L562.9 339.325L540.875 342.1C519.475 346.95 501.2 358.075 487.55 373.4L487.475 373.5C474.1 390.125 466 411.475 466 434.725C466 466.7 481.325 495.1 505 513L505.25 513.175C547.9 545.05 610.25 552.05 618.225 582.05C625.725 618.6 591.05 630.325 556.8 626.1C532.875 620.65 513.275 605.35 502.2 584.8L501.975 584.375L444.8 617.2C451.525 630.6 459.975 642.05 470.075 651.825L470.1 651.85C524.45 706.7 660.35 703.9 684.75 620.475C687.575 611.375 689.2 600.925 689.2 590.1C689.2 582.6 688.425 575.275 686.925 568.225L687.05 568.925L688.475 571.075ZM0.100098 0.100098H749.875V749.875H0.100098V0.100098Z" fill="white"/>
</svg>
