<svg width="106" height="101" viewBox="0 0 106 101" fill="none" xmlns="http://www.w3.org/2000/svg">
<path d="M104.207 62.1825C77.5714 75.4913 45.1673 64.7344 31.8295 38.1571C25.6539 25.8507 24.6583 12.3154 28.0046 0C2.69078 13.8425 -7.31429 45.297 5.71791 71.2666C19.0557 97.8438 51.4598 108.601 78.095 95.292C92.397 88.1453 102.119 75.5115 106 61.2295C105.407 61.5546 104.816 61.8798 104.207 62.1825Z" fill="#BDC3C7"/>
<path d="M56.0568 48V39.2727H59.0057C59.6875 39.2727 60.2472 39.3892 60.6847 39.6222C61.1222 39.8523 61.446 40.169 61.6562 40.5724C61.8665 40.9759 61.9716 41.4347 61.9716 41.9489C61.9716 42.4631 61.8665 42.919 61.6562 43.3168C61.446 43.7145 61.1236 44.027 60.6889 44.2543C60.2543 44.4787 59.6989 44.5909 59.0227 44.5909H56.6364V43.6364H58.9886C59.4545 43.6364 59.8295 43.5682 60.1136 43.4318C60.4006 43.2955 60.608 43.1023 60.7358 42.8523C60.8665 42.5994 60.9318 42.2983 60.9318 41.9489C60.9318 41.5994 60.8665 41.294 60.7358 41.0327C60.6051 40.7713 60.3963 40.5696 60.1094 40.4276C59.8224 40.2827 59.4432 40.2102 58.9716 40.2102H57.1136V48H56.0568ZM60.1648 44.0795L62.3125 48H61.0852L58.9716 44.0795H60.1648ZM63.7326 48V39.2727H68.9996V40.2102H64.7894V43.1591H68.7269V44.0966H64.7894V47.0625H69.0678V48H63.7326ZM77.8249 39.2727V48H76.8022L72.0465 41.1477H71.9613V48H70.9045V39.2727H71.9272L76.6999 46.142H76.7852V39.2727H77.8249ZM86.9624 42H85.9055C85.843 41.696 85.7337 41.429 85.5774 41.1989C85.424 40.9688 85.2365 40.7756 85.0149 40.6193C84.7962 40.4602 84.5533 40.3409 84.2862 40.2614C84.0192 40.1818 83.7408 40.142 83.451 40.142C82.9226 40.142 82.4439 40.2756 82.0149 40.5426C81.5888 40.8097 81.2493 41.2031 80.9964 41.723C80.7464 42.2429 80.6214 42.8807 80.6214 43.6364C80.6214 44.392 80.7464 45.0298 80.9964 45.5497C81.2493 46.0696 81.5888 46.4631 82.0149 46.7301C82.4439 46.9972 82.9226 47.1307 83.451 47.1307C83.7408 47.1307 84.0192 47.0909 84.2862 47.0114C84.5533 46.9318 84.7962 46.8139 85.0149 46.6577C85.2365 46.4986 85.424 46.304 85.5774 46.0739C85.7337 45.8409 85.843 45.5739 85.9055 45.2727H86.9624C86.8828 45.7187 86.7379 46.1179 86.5277 46.4702C86.3175 46.8224 86.0561 47.1222 85.7436 47.3693C85.4311 47.6136 85.0803 47.7997 84.6911 47.9276C84.3047 48.0554 83.8913 48.1193 83.451 48.1193C82.7067 48.1193 82.0447 47.9375 81.4652 47.5739C80.8857 47.2102 80.4297 46.6932 80.0973 46.0227C79.7649 45.3523 79.5987 44.5568 79.5987 43.6364C79.5987 42.7159 79.7649 41.9205 80.0973 41.25C80.4297 40.5795 80.8857 40.0625 81.4652 39.6989C82.0447 39.3352 82.7067 39.1534 83.451 39.1534C83.8913 39.1534 84.3047 39.2173 84.6911 39.3452C85.0803 39.473 85.4311 39.6605 85.7436 39.9077C86.0561 40.152 86.3175 40.4503 86.5277 40.8026C86.7379 41.152 86.8828 41.5511 86.9624 42ZM88.6701 48V39.2727H93.9371V40.2102H89.7269V43.1591H93.6644V44.0966H89.7269V47.0625H94.0053V48H88.6701Z" fill="#BDC3C7"/>
<path d="M56.0824 38V12.5455H59.1648V35.2656H70.9972V38H56.0824ZM78.4204 38H75.1888L84.5354 12.5455H87.7172L97.0638 38H93.8323L86.2258 16.5724H86.0269L78.4204 38ZM79.6135 28.0568H92.6391V30.7912H79.6135V28.0568Z" fill="white"/>
</svg>
